<svg id="Calque_1" data-name="Calque 1" xmlns="http://www.w3.org/2000/svg" viewBox="0 0 901.88 257"><defs><style>.cls-1,.cls-2{fill:#191817;}.cls-2{font-size:69.14px;font-family:CharlevoixPro-Light, Charlevoix Pro;font-weight:300;}.cls-3{letter-spacing:-0.01em;}.cls-4{letter-spacing:-0.1em;}.cls-5{letter-spacing:-0.04em;}.cls-6{letter-spacing:-0.03em;}</style></defs><title>artaetas_noir</title><path class="cls-1" d="M125.37,36.26h8.93a2.3,2.3,0,0,1,2.28,1.33l58.71,131.86c.57,1.33,0,2.28-1.33,2.28H174.2a2.3,2.3,0,0,1-2.28-1.33l-10.83-24.32a2.05,2.05,0,0,0-2.09-1.33H100.67a2.3,2.3,0,0,0-2.28,1.33L87.75,170.4a2.05,2.05,0,0,1-2.09,1.33h-20c-1.33,0-1.9-.95-1.33-2.28L123.09,37.59A2.3,2.3,0,0,1,125.37,36.26Zm-16.15,89.11h41.23c1.33,0,1.9-1,1.33-2.28l-20.52-49a1.39,1.39,0,0,0-2.66,0l-20.71,49C107.32,124.42,107.89,125.37,109.22,125.37Z" transform="translate(-62.51 -35.68)"/><path class="cls-1" d="M208.59,169.83V38.16a1.79,1.79,0,0,1,1.9-1.9h52.44c27.17,0,47.69,18.24,47.69,45.79,0,19.57-10.64,32.49-24.13,40.09a1.83,1.83,0,0,0-.57,2.66l23.56,44.65c.76,1.33,0,2.28-1.33,2.28H288.77a2.3,2.3,0,0,1-2.28-1.33L265.4,129a2.48,2.48,0,0,0-2.28-1.33h-31a1.8,1.8,0,0,0-1.9,1.9v40.28a1.8,1.8,0,0,1-1.9,1.9H210.49A1.8,1.8,0,0,1,208.59,169.83Zm54.53-61.56c11.21,0,25.84-8.74,25.84-26.22,0-18.24-13.3-26.41-28.31-26.41h-28.5a1.8,1.8,0,0,0-1.9,1.9v48.83a1.8,1.8,0,0,0,1.9,1.9Z" transform="translate(-62.51 -35.68)"/><path class="cls-1" d="M413.41,38.16V53.74a1.8,1.8,0,0,1-1.9,1.9H380.35a1.8,1.8,0,0,0-1.9,1.9V169.83a1.8,1.8,0,0,1-1.9,1.9H358.88a1.8,1.8,0,0,1-1.9-1.9V57.54a1.8,1.8,0,0,0-1.9-1.9H323.92a1.8,1.8,0,0,1-1.9-1.9V38.16a1.79,1.79,0,0,1,1.9-1.9h87.59A1.79,1.79,0,0,1,413.41,38.16Z" transform="translate(-62.51 -35.68)"/><path class="cls-1" d="M486.36,36.26h4.94a2.3,2.3,0,0,1,2.28,1.33l54.91,131.86c.57,1.33,0,2.28-1.33,2.28h-7.79a2.3,2.3,0,0,1-2.28-1.33l-12.73-30.78a2.05,2.05,0,0,0-2.09-1.33H455.39a2.3,2.3,0,0,0-2.28,1.33L440.19,170.4a2.05,2.05,0,0,1-2.09,1.33h-8c-1.33,0-1.9-.95-1.33-2.28L484.08,37.59A2.3,2.3,0,0,1,486.36,36.26ZM460.14,128h57.38c1.33,0,1.9-1,1.33-2.28L490.16,56.21a1.39,1.39,0,0,0-2.66,0l-28.69,69.54C458.24,127.08,458.81,128,460.14,128Z" transform="translate(-62.51 -35.68)"/><path class="cls-1" d="M744.75,38.16v6.46a1.79,1.79,0,0,1-1.9,1.89H709.6a1.8,1.8,0,0,0-1.9,1.91V169.83a1.8,1.8,0,0,1-1.9,1.9h-7.22a1.8,1.8,0,0,1-1.9-1.9V48.42a1.8,1.8,0,0,0-1.9-1.91H661.53a1.79,1.79,0,0,1-1.9-1.89V38.16a1.79,1.79,0,0,1,1.9-1.9h81.32A1.79,1.79,0,0,1,744.75,38.16Z" transform="translate(-62.51 -35.68)"/><path class="cls-1" d="M791.3,36.26h4.94a2.3,2.3,0,0,1,2.28,1.33l54.91,131.86c.57,1.33,0,2.28-1.33,2.28h-7.79A2.3,2.3,0,0,1,842,170.4L829.3,139.62a2.05,2.05,0,0,0-2.09-1.33H760.33a2.3,2.3,0,0,0-2.28,1.33L745.13,170.4a2.05,2.05,0,0,1-2.09,1.33h-8c-1.33,0-1.9-.95-1.33-2.28L789,37.59A2.3,2.3,0,0,1,791.3,36.26ZM765.08,128h57.38c1.33,0,1.9-1,1.33-2.28L795.1,56.21a1.39,1.39,0,0,0-2.66,0l-28.69,69.54C763.18,127.08,763.75,128,765.08,128Z" transform="translate(-62.51 -35.68)"/><path class="cls-1" d="M867.49,141.33c-.38-1.14.76-1.33,1.9-1.9l7-1.52c1.33-.57,1,0,2.09,1.9,2.66,5.32,16.34,22.23,40.85,22.23,22,0,34.2-9.12,34.2-22.8,0-24.32-33.63-27.93-51.68-34.2-20-6.65-33.63-14.44-33.63-35,0-18,17.29-34.4,44.08-34.4,27,0,42.18,15.21,46.93,29.84.38,1.14-.57,1.71-1.9,1.9l-7.22,1c-1.33.19-1.14-.38-1.9-1.9C944.06,57.54,934.75,46,912.52,46c-22.42,0-33.25,13.68-33.25,24.51,0,19,19.19,23.56,41.23,29.83,25.08,7,43.89,17.1,43.89,38.19,0,22.61-19.19,33.82-45.22,33.82C892,172.3,874.14,155.77,867.49,141.33Z" transform="translate(-62.51 -35.68)"/><path class="cls-1" d="M619.92,111.12a1.8,1.8,0,0,0,1.91-1.9v-6.65a1.8,1.8,0,0,0-1.91-1.9H568.45a2,2,0,0,1-.5-.09V111.2a2.61,2.61,0,0,1,.5-.08Z" transform="translate(-62.51 -35.68)"/><path class="cls-1" d="M568,46.6a2,2,0,0,1,.5-.09h68.39a1.79,1.79,0,0,0,1.9-1.89V38.16a1.79,1.79,0,0,0-1.9-1.9H568Z" transform="translate(-62.51 -35.68)"/><path class="cls-1" d="M638.74,161.47H568.45a2,2,0,0,1-.5-.09v10.35h70.79a1.8,1.8,0,0,0,1.9-1.9v-6.46A1.8,1.8,0,0,0,638.74,161.47Z" transform="translate(-62.51 -35.68)"/><text class="cls-2" transform="translate(125.38 238.89)">IT’S T<tspan class="cls-3" x="194.48" y="0">I</tspan><tspan x="217.64" y="0">ME </tspan><tspan class="cls-4" x="340.43" y="0">F</tspan><tspan class="cls-5" x="371.26" y="0">O</tspan><tspan x="427.68" y="0">R </tspan><tspan class="cls-6" x="500.21" y="0">A</tspan><tspan class="cls-5" x="550.81" y="0">R</tspan><tspan x="593.61" y="0">T</tspan></text></svg>