<svg id="Calque_1" data-name="Calque 1" xmlns="http://www.w3.org/2000/svg" viewBox="0 0 1026.9 311.97"><defs><style>.cls-1{fill:#191817;}</style></defs><title>artaetas_noir-logo-seul</title><path class="cls-1" d="M124.55,88.25h8.93a2.3,2.3,0,0,1,2.28,1.33l58.71,131.86c.57,1.33,0,2.28-1.33,2.28H173.38a2.3,2.3,0,0,1-2.28-1.33l-10.83-24.32a2.05,2.05,0,0,0-2.09-1.33H99.85a2.3,2.3,0,0,0-2.28,1.33L86.93,222.39a2.05,2.05,0,0,1-2.09,1.33h-20c-1.33,0-1.9-.95-1.33-2.28L122.27,89.58A2.3,2.3,0,0,1,124.55,88.25ZM108.4,177.36h41.23c1.33,0,1.9-1,1.33-2.28l-20.52-49a1.39,1.39,0,0,0-2.66,0l-20.71,49C106.5,176.41,107.07,177.36,108.4,177.36Z"/><path class="cls-1" d="M207.77,221.82V90.15a1.79,1.79,0,0,1,1.89-1.9H262.1c27.18,0,47.7,18.24,47.7,45.79,0,19.57-10.64,32.49-24.13,40.09a1.83,1.83,0,0,0-.57,2.66l23.56,44.65c.76,1.33,0,2.28-1.33,2.28H288a2.3,2.3,0,0,1-2.28-1.33L264.58,181a2.5,2.5,0,0,0-2.29-1.33h-31a1.79,1.79,0,0,0-1.89,1.9v40.28a1.8,1.8,0,0,1-1.91,1.9H209.66A1.79,1.79,0,0,1,207.77,221.82Zm54.52-61.56c11.22,0,25.84-8.74,25.84-26.22,0-18.24-13.3-26.41-28.3-26.41H231.32a1.79,1.79,0,0,0-1.89,1.9v48.83a1.79,1.79,0,0,0,1.89,1.9Z"/><path class="cls-1" d="M412.58,90.15v15.58a1.8,1.8,0,0,1-1.9,1.9H379.52a1.8,1.8,0,0,0-1.9,1.9V221.82a1.8,1.8,0,0,1-1.9,1.9H358.05a1.8,1.8,0,0,1-1.9-1.9V109.53a1.8,1.8,0,0,0-1.9-1.9H323.09a1.8,1.8,0,0,1-1.9-1.9V90.15a1.8,1.8,0,0,1,1.9-1.9h87.59A1.8,1.8,0,0,1,412.58,90.15Z"/><path class="cls-1" d="M485.54,88.25h4.94a2.3,2.3,0,0,1,2.28,1.33l54.91,131.86c.57,1.33,0,2.28-1.33,2.28h-7.79a2.3,2.3,0,0,1-2.28-1.33l-12.73-30.78a2.05,2.05,0,0,0-2.09-1.33H454.57a2.3,2.3,0,0,0-2.28,1.33l-12.92,30.78a2.06,2.06,0,0,1-2.09,1.33h-8c-1.33,0-1.91-.95-1.33-2.28L483.26,89.58A2.3,2.3,0,0,1,485.54,88.25ZM459.32,180H516.7c1.33,0,1.9-1,1.33-2.28L489.34,108.2a1.39,1.39,0,0,0-2.66,0L458,177.74C457.42,179.07,458,180,459.32,180Z"/><path class="cls-1" d="M743.93,90.15v6.46a1.8,1.8,0,0,1-1.9,1.9H708.78a1.8,1.8,0,0,0-1.9,1.9V221.82a1.8,1.8,0,0,1-1.9,1.9h-7.22a1.8,1.8,0,0,1-1.9-1.9V100.41a1.8,1.8,0,0,0-1.9-1.9H660.71a1.8,1.8,0,0,1-1.9-1.9V90.15a1.8,1.8,0,0,1,1.9-1.9H742A1.8,1.8,0,0,1,743.93,90.15Z"/><path class="cls-1" d="M790.48,88.25h4.94a2.3,2.3,0,0,1,2.28,1.33l54.91,131.86c.57,1.33,0,2.28-1.33,2.28h-7.79a2.3,2.3,0,0,1-2.28-1.33l-12.73-30.78a2.05,2.05,0,0,0-2.09-1.33H759.51a2.3,2.3,0,0,0-2.28,1.33l-12.92,30.78a2.06,2.06,0,0,1-2.09,1.33h-8c-1.33,0-1.91-.95-1.33-2.28L788.2,89.58A2.3,2.3,0,0,1,790.48,88.25ZM764.26,180h57.38c1.33,0,1.9-1,1.33-2.28L794.28,108.2a1.39,1.39,0,0,0-2.66,0l-28.69,69.54C762.36,179.07,762.93,180,764.26,180Z"/><path class="cls-1" d="M866.66,193.32c-.38-1.14.76-1.33,1.9-1.9l7-1.52c1.32-.57.94,0,2.08,1.9C880.34,197.12,894,214,918.54,214c22,0,34.2-9.12,34.2-22.8,0-24.32-33.63-27.93-51.68-34.2-20-6.65-33.64-14.44-33.64-35,0-18,17.29-34.39,44.08-34.39,27,0,42.19,15.2,46.94,29.83.38,1.14-.57,1.71-1.9,1.9l-7.22,1c-1.34.19-1.14-.38-1.9-1.9-4.19-8.93-13.49-20.52-35.72-20.52-22.43,0-33.26,13.68-33.26,24.51,0,19,19.19,23.56,41.24,29.83,25.08,7,43.89,17.1,43.89,38.19,0,22.61-19.19,33.82-45.23,33.82C891.17,224.29,873.31,207.76,866.66,193.32Z"/><path class="cls-1" d="M619.1,163.11a1.8,1.8,0,0,0,1.9-1.9v-6.65a1.8,1.8,0,0,0-1.9-1.9H567.63a1.93,1.93,0,0,1-.5-.09V163.2a1.93,1.93,0,0,1,.5-.09Z"/><path class="cls-1" d="M567.13,98.6a1.93,1.93,0,0,1,.5-.09H636a1.8,1.8,0,0,0,1.9-1.9V90.15a1.8,1.8,0,0,0-1.9-1.9H567.13Z"/><path class="cls-1" d="M637.91,213.46H567.63a1.93,1.93,0,0,1-.5-.09v10.35h70.78a1.8,1.8,0,0,0,1.9-1.9v-6.46A1.8,1.8,0,0,0,637.91,213.46Z"/></svg>