<svg id="Calque_1" data-name="Calque 1" xmlns="http://www.w3.org/2000/svg" viewBox="0 0 1026.9 112.08"><defs><style>.cls-1{fill:#191817;}</style></defs><title>artaetas_noir-baseline-seul</title><path class="cls-1" d="M214.64,35.65h-3a.65.65,0,0,0-.69.69V76.79a.65.65,0,0,0,.69.69h3a.65.65,0,0,1,.69.69v2.35a.65.65,0,0,1-.69.69H203.23a.65.65,0,0,1-.69-.69V78.17a.66.66,0,0,1,.69-.69h3.05a.66.66,0,0,0,.69-.69V36.34a.66.66,0,0,0-.69-.69h-3.05a.65.65,0,0,1-.69-.69V32.61a.66.66,0,0,1,.69-.69h11.41a.65.65,0,0,1,.69.69V35A.65.65,0,0,1,214.64,35.65Z"/><path class="cls-1" d="M256.68,32.61V35a.65.65,0,0,1-.69.69h-12.1a.66.66,0,0,0-.7.69V80.52a.65.65,0,0,1-.69.69h-2.62a.65.65,0,0,1-.7-.69V36.34a.65.65,0,0,0-.69-.69h-12.1a.65.65,0,0,1-.69-.69V32.61a.66.66,0,0,1,.69-.69H256A.66.66,0,0,1,256.68,32.61Z"/><path class="cls-1" d="M270,29.15h2.35c.48,0,.69.28.55.76l-4.35,12.52a.81.81,0,0,1-.83.55h-1.45a.54.54,0,0,1-.56-.76l3.53-12.44A.75.75,0,0,1,270,29.15Z"/><path class="cls-1" d="M285,70.15c-.14-.41.28-.48.69-.69l2.56-.55c.49-.21.35,0,.76.69a17.31,17.31,0,0,0,14.87,8.09c8,0,12.44-3.32,12.44-8.3,0-8.85-12.24-10.16-18.8-12.44-7.26-2.42-12.24-5.26-12.24-12.72,0-6.57,6.29-12.52,16-12.52s15.35,5.53,17.08,10.86c.13.41-.21.62-.7.69L315,43.6c-.49.07-.42-.14-.69-.69-1.52-3.25-4.91-7.47-13-7.47s-12.1,5-12.1,8.92c0,6.92,7,8.58,15,10.86,9.13,2.56,16,6.22,16,13.89,0,8.23-7,12.31-16.45,12.31A20.5,20.5,0,0,1,285,70.15Z"/><path class="cls-1" d="M386.65,32.61V35a.65.65,0,0,1-.69.69h-12.1a.66.66,0,0,0-.69.69V80.52a.65.65,0,0,1-.69.69h-2.63a.65.65,0,0,1-.69-.69V36.34a.66.66,0,0,0-.69-.69h-12.1a.65.65,0,0,1-.69-.69V32.61a.66.66,0,0,1,.69-.69H386A.65.65,0,0,1,386.65,32.61Z"/><path class="cls-1" d="M409.12,35.65h-3a.66.66,0,0,0-.69.69V76.79a.66.66,0,0,0,.69.69h3a.65.65,0,0,1,.69.69v2.35a.65.65,0,0,1-.69.69h-11.4a.65.65,0,0,1-.7-.69V78.17a.66.66,0,0,1,.7-.69h3a.66.66,0,0,0,.69-.69V36.34a.66.66,0,0,0-.69-.69h-3A.65.65,0,0,1,397,35V32.61a.66.66,0,0,1,.7-.69h11.4a.65.65,0,0,1,.69.69V35A.65.65,0,0,1,409.12,35.65Z"/><path class="cls-1" d="M464.43,31.92h2.21a.66.66,0,0,1,.7.69V80.52a.65.65,0,0,1-.7.69h-2.55a.65.65,0,0,1-.69-.69v-39c0-.62-.56-.83-.83-.35l-18,30.49c-.28.49-.69.49-1,0l-17.9-30.42c-.35-.48-.83-.34-.83.28v39a.65.65,0,0,1-.7.69h-2.62a.65.65,0,0,1-.69-.69V32.61a.65.65,0,0,1,.69-.69h2.14a1,1,0,0,1,.9.41l19,32.29a.53.53,0,0,0,1,0l18.94-32.29A1,1,0,0,1,464.43,31.92Z"/><path class="cls-1" d="M505,78.17v2.35a.65.65,0,0,1-.69.69H479.09a.65.65,0,0,1-.69-.69V32.61a.65.65,0,0,1,.69-.69h24.47a.66.66,0,0,1,.7.69V35a.65.65,0,0,1-.7.69H483.1a.65.65,0,0,0-.69.69V54.66a.65.65,0,0,0,.69.7h14.31a.65.65,0,0,1,.69.69v2.42a.65.65,0,0,1-.69.69H483.1a.65.65,0,0,0-.69.69V76.79a.65.65,0,0,0,.69.69h21.16A.66.66,0,0,1,505,78.17Z"/><path class="cls-1" d="M547.67,61.23V80.52a.65.65,0,0,1-.69.69h-2.63a.65.65,0,0,1-.69-.69V32.61a.66.66,0,0,1,.69-.69H569a.66.66,0,0,1,.69.69V35a.65.65,0,0,1-.69.69H548.36a.66.66,0,0,0-.69.69V56.12a.66.66,0,0,0,.69.69h14.11a.65.65,0,0,1,.69.69v2.35a.65.65,0,0,1-.69.69H548.36A.66.66,0,0,0,547.67,61.23Z"/><path class="cls-1" d="M621.93,56.53c0,14.24-9.48,24.89-23.72,24.89S574.5,70.77,574.5,56.53,584,31.71,598.21,31.71,621.93,42.29,621.93,56.53Zm-43.42,0c0,12.38,7.88,21.16,19.7,21.16s19.71-8.78,19.71-21.16S610,35.44,598.21,35.44,578.51,44.16,578.51,56.53Z"/><path class="cls-1" d="M630.22,80.52V32.61a.66.66,0,0,1,.69-.69H648c9.89,0,16.73,5.88,16.73,15.9a15.32,15.32,0,0,1-9,14.38.67.67,0,0,0-.2,1l8.78,17.21c.27.49,0,.83-.49.83H661a.91.91,0,0,1-.83-.48l-8.44-16.52a.89.89,0,0,0-.83-.49h-16a.66.66,0,0,0-.69.69V80.52a.65.65,0,0,1-.69.69h-2.63A.65.65,0,0,1,630.22,80.52ZM649.44,60a11.77,11.77,0,0,0,11.34-12.17c0-8.92-6.15-12.17-13.07-12.17H634.92a.66.66,0,0,0-.69.69v23a.66.66,0,0,0,.69.69Z"/><path class="cls-1" d="M722.38,31.92h1.8a.84.84,0,0,1,.83.48l20,48c.21.49,0,.83-.48.83h-2.84a.85.85,0,0,1-.83-.48l-4.63-11.2a.74.74,0,0,0-.76-.48H711.11a.84.84,0,0,0-.83.48l-4.7,11.2a.75.75,0,0,1-.76.48h-2.9c-.49,0-.69-.34-.49-.83l20.12-48A.85.85,0,0,1,722.38,31.92Zm-9.54,33.39h20.88c.48,0,.69-.34.48-.83l-10.43-25.3a.5.5,0,0,0-1,0l-10.44,25.3C712.15,65,712.36,65.31,712.84,65.31Z"/><path class="cls-1" d="M753.36,80.52V32.61a.65.65,0,0,1,.69-.69h17.07c9.89,0,16.74,5.88,16.74,15.9a15.33,15.33,0,0,1-9,14.38.66.66,0,0,0-.21,1l8.78,17.21c.28.49,0,.83-.48.83h-2.84a.92.92,0,0,1-.83-.48l-8.43-16.52a.91.91,0,0,0-.83-.49h-16a.65.65,0,0,0-.69.69V80.52a.65.65,0,0,1-.7.69h-2.62A.65.65,0,0,1,753.36,80.52ZM772.58,60a11.76,11.76,0,0,0,11.33-12.17c0-8.92-6.15-12.17-13.06-12.17H758.06a.65.65,0,0,0-.69.69v23a.65.65,0,0,0,.69.69Z"/><path class="cls-1" d="M826.44,32.61V35a.65.65,0,0,1-.7.69h-12.1a.66.66,0,0,0-.69.69V80.52a.65.65,0,0,1-.69.69h-2.63a.65.65,0,0,1-.69-.69V36.34a.65.65,0,0,0-.69-.69h-12.1a.65.65,0,0,1-.69-.69V32.61a.66.66,0,0,1,.69-.69h29.59A.66.66,0,0,1,826.44,32.61Z"/></svg>