<svg xmlns="http://www.w3.org/2000/svg" width="1114" height="1114" viewBox="0 0 1114 1114">
  <defs>
    <style>
      .cls-1 {
        fill-rule: evenodd;
      }
    </style>
  </defs>
  <path id="ok_.svg" data-name="ok .svg" class="cls-1" d="M567,1124C259.377,1124,10,874.623,10,567S259.377,10,567,10s557,249.377,557,557S874.623,1124,567,1124ZM570,81C301.037,81,83,299.037,83,568s218.037,487,487,487,487-218.037,487-487S838.963,81,570,81ZM491.173,927.692L477,913.519l-0.173.173L169.308,606.173,295.173,480.308,491,676.135,842.827,324.308,968.692,450.173Z" transform="translate(-10 -10)"/>
</svg>
