<svg xmlns="http://www.w3.org/2000/svg" width="1101.03" height="1112" viewBox="0 0 1101.03 1112">
  <defs>
    <style>
      .cls-1 {
        fill-rule: evenodd;
      }
    </style>
  </defs>
  <path id="recherche_.svg" data-name="recherche .svg" class="cls-1" d="M1109.92,1020.28c-32.92,31.84-75.3,77.17-95.48,93.54s-47.746,6.44-67.541-14.03-148.393-149.452-266.72-267.6C615.532,870,538.036,891.655,457.832,891.655,216.025,891.655,20,692.473,20,449.655S216.025,9.994,457.832,9.994,895.663,206.837,895.663,449.655a439.022,439.022,0,0,1-59.891,222.1c95.578,96.916,255.518,254.979,271.818,271.349S1126.15,1004.58,1109.92,1020.28ZM454.339,119.909c-182,0-329.538,145.817-329.538,328.577S272.34,779.4,454.339,779.4,781.548,631.245,781.548,448.486,636.338,119.909,454.339,119.909Z" transform="translate(-20 -10)"/>
</svg>
