<svg xmlns="http://www.w3.org/2000/svg" width="1108.969" height="1074.97" viewBox="0 0 1108.969 1074.97">
  <defs>
    <style>
      .cls-1 {
        fill: #000001;
        fill-rule: evenodd;
      }
    </style>
  </defs>
  <path id="tiers_.svg" data-name="tiers .svg" class="cls-1" d="M1082.39,1017.55c-35.51,31.61-137.135,69.81-320.8,89.41-97.952,4.9-227.738,14.69-411.4-3.68s-279.163-60.01-313.446-96.75S3.692,911,33.077,847.317,84.5,720.35,209.391,689.732c29.982-7.351,84.169-13.36,150.583-17.435,17.539,40.12,114.227,124.393,158.207,170.68l19.175-41.249A30.616,30.616,0,0,1,515.491,772.4V731.979H617.116V772.4a30.618,30.618,0,0,1-21.865,29.333l19.457,42.592c35.637-37.179,109.226-96.931,159.1-171.343,94.985,6.661,172.682,18.714,204.5,37.575,95.506,56.337,122.436,140.439,133.456,175.956C1141.16,967.339,1082.39,1017.55,1082.39,1017.55Zm-519.76-357c-143.02,0-258.96-219.461-258.96-362.518S419.61,39,562.63,39,821.591,154.971,821.591,298.029,705.65,660.547,562.63,660.547ZM774.977,266.924c-13.109-20.865-29.753-27.971-45.216-22.171-29.386,11.023-96.2,18.371-148.153,18.371-90.168,0-181.714-34.547-195.851-79.291a212.129,212.129,0,0,0-34.336,116.033c0,117.693,95.384,311.079,213.046,311.079S777.512,417.559,777.512,299.866A214.734,214.734,0,0,0,774.977,266.924Z" transform="translate(-11.031 -39)"/>
</svg>
